<svg version="1.1" xmlns="http://www.w3.org/2000/svg" xmlns:xlink="http://www.w3.org/1999/xlink" width="653" height="478" viewBox="0 0 653 478"><defs/><g transform="matrix(1,0,0,1,0,0)"><g><g><g><path fill="none" stroke="#d3d3d3" paint-order="fill stroke markers" d=" M 0 0 L 1200 0" stroke-miterlimit="10" stroke-opacity="0.8" stroke-dasharray="5"/></g><g><path fill="none" stroke="#d3d3d3" paint-order="fill stroke markers" d=" M 0 0 L 0 800" stroke-miterlimit="10" stroke-opacity="0.8" stroke-dasharray="5"/></g></g><g id="_A3F0AA87-ECAA-4B0E-BEDD-557D050EF45A" transform="matrix(1,0,0,1,403,228)"><g><path fill="none" stroke="none"/></g><g transform="matrix(1,0,0,1,0,0)"><path fill="none" stroke="#000000" id="_A3F0AA87-ECAA-4B0E-BEDD-557D050EF45A?shapeType=BORDER&amp;renderType=STROKE" paint-order="fill stroke markers" d=" M 40 0 L 160 0 L 160 0 A 40 40 0 0 1 200 40 L 200 160 L 200 160 A 40 40 0 0 1 160 200 L 40 200 L 40 200 A 40 40 0 0 1 0 160 L 0 40 L 0 40.00000000000001 A 40 40 0 0 1 39.99999999999999 0 Z" stroke-miterlimit="10" stroke-width="3" stroke-dasharray=""/></g><g transform="matrix(1,0,0,1,0,100)"><path fill="none" stroke="black" id="_A3F0AA87-ECAA-4B0E-BEDD-557D050EF45Aundefined" paint-order="fill stroke markers" d=" M 0 0 L 200 0" stroke-miterlimit="10" stroke-width="1.5" stroke-dasharray=""/></g><g transform="matrix(1,0,0,1,66.00788879394531,20)"><text fill="#000000" stroke="none" font-family="Open Sans" font-size="10pt" font-style="normal" font-weight="normal" text-decoration="normal" x="33.99211120605469" y="10.4" text-anchor="middle" dominant-baseline="alphabetic">DTI Service</text></g><g id="_FABD268F-9451-49A9-9DBE-1D36A39EB05B" transform="matrix(1,0,0,1,48,39)"><g><path fill="none" stroke="none"/></g><g transform="matrix(1,0,0,1,0,0)"><path fill="none" stroke="#000000" id="_FABD268F-9451-49A9-9DBE-1D36A39EB05B?shapeType=BORDER&amp;renderType=STROKE" paint-order="fill stroke markers" d=" M 0 0 L 100 0 L 100 50 L 0 50 L 0 0 Z Z" stroke-miterlimit="10" stroke-width="1.5" stroke-dasharray=""/></g><g transform="matrix(1,0,0,1,39.79423522949219,18.5)"><text fill="#000000" stroke="none" font-family="Open Sans" font-size="10pt" font-style="normal" font-weight="normal" text-decoration="normal" x="10.205764770507812" y="10.4" text-anchor="middle" dominant-baseline="alphabetic">DTI</text></g></g></g><g id="_B1B99D09-6E84-4DE1-9414-31B30B91AD16" transform="matrix(1,0,0,1,181,219)"><g><path fill="none" stroke="none"/></g><g transform="matrix(0.9345794392523364,0,0,0.8771929824561403,0,0)"><g transform="matrix(1,0,0,1,0,0)"><path fill="none" stroke="#000000" id="_B1B99D09-6E84-4DE1-9414-31B30B91AD16?shapeType=BORDER&amp;renderType=STROKE" paint-order="fill stroke markers" d=" M 0 0 M 1.5 30 C 1.5 14.3 14.3 1.5 30 1.5 L 80 1.5 C 95.7 1.5 108.5 14.3 108.5 30 C 108.5 45.7 95.7 58.5 80 58.5 L 30 58.5 C 14.3 58.5 1.5 45.7 1.5 30 Z" stroke-miterlimit="10" stroke-width="1.5" stroke-dasharray=""/></g></g><g transform="matrix(1,0,0,1,31.163589477539062,18.5)"><text fill="#000000" stroke="none" font-family="Open Sans" font-size="10pt" font-style="normal" font-weight="normal" text-decoration="normal" x="18.836410522460938" y="10.4" text-anchor="middle" dominant-baseline="alphabetic">Salary</text></g></g><g id="_47EE8828-24CC-41D1-AF22-90873341511E" transform="matrix(1,0,0,1,181,319)"><g><path fill="none" stroke="none"/></g><g transform="matrix(0.9345794392523364,0,0,0.8771929824561403,0,0)"><g transform="matrix(1,0,0,1,0,0)"><path fill="none" stroke="#000000" id="_47EE8828-24CC-41D1-AF22-90873341511E?shapeType=BORDER&amp;renderType=STROKE" paint-order="fill stroke markers" d=" M 0 0 M 1.5 30 C 1.5 14.3 14.3 1.5 30 1.5 L 80 1.5 C 95.7 1.5 108.5 14.3 108.5 30 C 108.5 45.7 95.7 58.5 80 58.5 L 30 58.5 C 14.3 58.5 1.5 45.7 1.5 30 Z" stroke-miterlimit="10" stroke-width="1.5" stroke-dasharray=""/></g></g><g transform="matrix(1,0,0,1,34.717384338378906,18.5)"><text fill="#000000" stroke="none" font-family="Open Sans" font-size="10pt" font-style="normal" font-weight="normal" text-decoration="normal" x="15.282615661621094" y="10.4" text-anchor="middle" dominant-baseline="alphabetic">Loan</text></g></g><g id="_E8F34173-5A17-4B9E-936F-72CFCF1210C4#_E508941C-2DE2-41DD-8406-EA8AD646DB7F"><g><path fill="none" stroke="#000000" paint-order="fill stroke markers" d=" M 281 252.88888888888889 L 451 283.1111111111111" stroke-miterlimit="10" stroke-dasharray=""/></g><g transform="matrix(-0.9845625077859067,-0.1750333347174944,0.1750333347174944,-0.9845625077859067,281,252.88888888888889)"/><g transform="matrix(-0.17503333471749424,0.9845625077859067,-0.9845625077859067,-0.17503333471749424,451.87516667358744,278.18829857218157)"><path fill="#000000" stroke="#000000" paint-order="fill stroke markers" d=" M 10 15 L 0 15 L 5 0 Z" stroke-miterlimit="10" stroke-dasharray=""/></g><g transform="matrix(1,0,0,1,282.75033334717494,258.15437492214096)"/></g><g id="_E8F34173-5A17-4B9E-936F-72CFCF1210C4#_7A538A2F-562E-4E49-B5F0-572FFCFEF4CB"><g><path fill="none" stroke="#000000" paint-order="fill stroke markers" d=" M 281 334.3703703703704 L 451 301.6296296296296" stroke-miterlimit="10" stroke-dasharray=""/></g><g transform="matrix(-0.9819545287725397,0.18911716850434115,-0.18911716850434115,-0.9819545287725397,281,334.3703703703704)"/><g transform="matrix(0.1891171685043411,0.9819545287725397,-0.9819545287725397,0.1891171685043411,450.0544141574783,296.7198569857669)"><path fill="#000000" stroke="#000000" paint-order="fill stroke markers" d=" M 10 15 L 0 15 L 5 0 Z" stroke-miterlimit="10" stroke-dasharray=""/></g><g transform="matrix(1,0,0,1,282.8911716850434,308.1804547122746)"/></g><g transform="matrix(1,0,0,1,403,228)"/><g transform="matrix(1,0,0,1,451,267)"/><g transform="matrix(1,0,0,1,181,219)"/><g transform="matrix(1,0,0,1,181,319)"/></g></g></svg>