<svg version="1.1" xmlns="http://www.w3.org/2000/svg" xmlns:xlink="http://www.w3.org/1999/xlink" width="511" height="420" viewBox="0 0 511 420"><defs/><g transform="matrix(1,0,0,1,0,0)"><g><g><g><path fill="none" stroke="#d3d3d3" paint-order="fill stroke markers" d=" M 0 0 L 1200 0" stroke-miterlimit="10" stroke-opacity="0.8" stroke-dasharray="5"/></g><g><path fill="none" stroke="#d3d3d3" paint-order="fill stroke markers" d=" M 0 0 L 0 800" stroke-miterlimit="10" stroke-opacity="0.8" stroke-dasharray="5"/></g></g><g id="_6B0D8DBC-3B72-4EBB-A3E1-AF3B70EE7516" transform="matrix(1,0,0,1,181,119)"><g><path fill="none" stroke="none"/></g><g transform="matrix(0.9345794392523364,0,0,0.8771929824561403,0,0)"><g transform="matrix(1,0,0,1,0,0)"><path fill="none" stroke="#000000" id="_6B0D8DBC-3B72-4EBB-A3E1-AF3B70EE7516?shapeType=BORDER&amp;renderType=STROKE" paint-order="fill stroke markers" d=" M 0 0 M 1.5 30 C 1.5 14.3 14.3 1.5 30 1.5 L 80 1.5 C 95.7 1.5 108.5 14.3 108.5 30 C 108.5 45.7 95.7 58.5 80 58.5 L 30 58.5 C 14.3 58.5 1.5 45.7 1.5 30 Z" stroke-miterlimit="10" stroke-width="1.5" stroke-dasharray=""/></g></g><g transform="matrix(1,0,0,1,12.909706115722656,18.5)"><text fill="#000000" stroke="none" font-family="Open Sans" font-size="10pt" font-style="normal" font-weight="normal" text-decoration="normal" x="37.090293884277344" y="10.4" text-anchor="middle" dominant-baseline="alphabetic">Credit score</text></g></g><g id="_7FB19901-7275-4298-B6FC-293844801E7D" transform="matrix(1,0,0,1,181,219)"><g><path fill="none" stroke="none"/></g><g transform="matrix(0.9345794392523364,0,0,0.8771929824561403,0,0)"><g transform="matrix(1,0,0,1,0,0)"><path fill="none" stroke="#000000" id="_7FB19901-7275-4298-B6FC-293844801E7D?shapeType=BORDER&amp;renderType=STROKE" paint-order="fill stroke markers" d=" M 0 0 M 1.5 30 C 1.5 14.3 14.3 1.5 30 1.5 L 80 1.5 C 95.7 1.5 108.5 14.3 108.5 30 C 108.5 45.7 95.7 58.5 80 58.5 L 30 58.5 C 14.3 58.5 1.5 45.7 1.5 30 Z" stroke-miterlimit="10" stroke-width="1.5" stroke-dasharray=""/></g></g><g transform="matrix(1,0,0,1,31.163589477539062,18.5)"><text fill="#000000" stroke="none" font-family="Open Sans" font-size="10pt" font-style="normal" font-weight="normal" text-decoration="normal" x="18.836410522460938" y="10.4" text-anchor="middle" dominant-baseline="alphabetic">Salary</text></g></g><g id="_0F80E4D1-1305-42CE-BB8F-0D0086B7798D" transform="matrix(1,0,0,1,181,319)"><g><path fill="none" stroke="none"/></g><g transform="matrix(0.9345794392523364,0,0,0.8771929824561403,0,0)"><g transform="matrix(1,0,0,1,0,0)"><path fill="none" stroke="#000000" id="_0F80E4D1-1305-42CE-BB8F-0D0086B7798D?shapeType=BORDER&amp;renderType=STROKE" paint-order="fill stroke markers" d=" M 0 0 M 1.5 30 C 1.5 14.3 14.3 1.5 30 1.5 L 80 1.5 C 95.7 1.5 108.5 14.3 108.5 30 C 108.5 45.7 95.7 58.5 80 58.5 L 30 58.5 C 14.3 58.5 1.5 45.7 1.5 30 Z" stroke-miterlimit="10" stroke-width="1.5" stroke-dasharray=""/></g></g><g transform="matrix(1,0,0,1,34.717384338378906,18.5)"><text fill="#000000" stroke="none" font-family="Open Sans" font-size="10pt" font-style="normal" font-weight="normal" text-decoration="normal" x="15.282615661621094" y="10.4" text-anchor="middle" dominant-baseline="alphabetic">Loan</text></g></g><g id="_E6B9EC4A-07B9-419C-9B58-4D1B5439BB4E" transform="matrix(1,0,0,1,361,119)"><g><path fill="none" stroke="none"/></g><g transform="matrix(1,0,0,1,0,0)"><path fill="none" stroke="#000000" id="_E6B9EC4A-07B9-419C-9B58-4D1B5439BB4E?shapeType=BORDER&amp;renderType=STROKE" paint-order="fill stroke markers" d=" M 0 0 L 100 0 L 100 50 L 0 50 L 0 0 Z Z" stroke-miterlimit="10" stroke-width="1.5" stroke-dasharray=""/></g><g transform="matrix(1,0,0,1,12.574508666992188,18.5)"><text fill="#000000" stroke="none" font-family="Open Sans" font-size="10pt" font-style="normal" font-weight="normal" text-decoration="normal" x="37.42549133300781" y="10.4" text-anchor="middle" dominant-baseline="alphabetic">Preapproval</text></g></g><g id="_C7B6D14C-9A39-4BD0-A8A8-A4B941DD9328" transform="matrix(1,0,0,1,361,270)"><g><path fill="none" stroke="none"/></g><g transform="matrix(1,0,0,1,0,0)"><path fill="none" stroke="#000000" id="_C7B6D14C-9A39-4BD0-A8A8-A4B941DD9328?shapeType=BORDER&amp;renderType=STROKE" paint-order="fill stroke markers" d=" M 0 0 L 100 0 L 100 50 L 0 50 L 0 0 Z Z" stroke-miterlimit="10" stroke-width="1.5" stroke-dasharray=""/></g><g transform="matrix(1,0,0,1,39.79423522949219,18.5)"><text fill="#000000" stroke="none" font-family="Open Sans" font-size="10pt" font-style="normal" font-weight="normal" text-decoration="normal" x="10.205764770507812" y="10.4" text-anchor="middle" dominant-baseline="alphabetic">DTI</text></g></g><g id="_E8F34173-5A17-4B9E-936F-72CFCF1210C4#_9BFEFD1E-9830-4630-8171-B6F1D3100308"><g><path fill="none" stroke="#000000" paint-order="fill stroke markers" d=" M 281 144 L 361 144" stroke-miterlimit="10" stroke-dasharray=""/></g><g transform="matrix(-1,1.2246467991473532e-16,-1.2246467991473532e-16,-1,281,144)"/><g transform="matrix(6.123233995736766e-17,1,-1,6.123233995736766e-17,361,139)"><path fill="#000000" stroke="#000000" paint-order="fill stroke markers" d=" M 10 15 L 0 15 L 5 0 Z" stroke-miterlimit="10" stroke-dasharray=""/></g><g transform="matrix(1,0,0,1,281,134)"/></g><g id="_E8F34173-5A17-4B9E-936F-72CFCF1210C4#_E508941C-2DE2-41DD-8406-EA8AD646DB7F"><g><path fill="none" stroke="#000000" paint-order="fill stroke markers" d=" M 281 258.1666666666667 L 361 280.83333333333337" stroke-miterlimit="10" stroke-dasharray=""/></g><g transform="matrix(-0.9621267263153838,-0.2726025724560255,0.2726025724560255,-0.9621267263153838,281,258.1666666666667)"/><g transform="matrix(-0.2726025724560255,0.9621267263153838,-0.9621267263153838,-0.2726025724560255,362.36301286228013,276.02269970175644)"><path fill="#000000" stroke="#000000" paint-order="fill stroke markers" d=" M 10 15 L 0 15 L 5 0 Z" stroke-miterlimit="10" stroke-dasharray=""/></g><g transform="matrix(1,0,0,1,283.72602572456026,259.8787327368462)"/></g><g id="_E8F34173-5A17-4B9E-936F-72CFCF1210C4#_4736D6D5-5A61-4C0E-ADBA-5AAD99221445"><g><path fill="none" stroke="#000000" paint-order="fill stroke markers" d=" M 411 270 L 411 169" stroke-miterlimit="10" stroke-dasharray=""/></g><g transform="matrix(6.123233995736766e-17,1,-1,6.123233995736766e-17,411,270)"/><g transform="matrix(1,0,0,1,406,169)"><path fill="#000000" stroke="#000000" paint-order="fill stroke markers" d=" M 10 15 L 0 15 L 5 0 Z" stroke-miterlimit="10" stroke-dasharray=""/></g><g transform="matrix(1,0,0,1,421,219.5)"/></g><g id="_E8F34173-5A17-4B9E-936F-72CFCF1210C4#_7A538A2F-562E-4E49-B5F0-572FFCFEF4CB"><g><path fill="none" stroke="#000000" paint-order="fill stroke markers" d=" M 281 330.3888888888889 L 361 308.61111111111114" stroke-miterlimit="10" stroke-dasharray=""/></g><g transform="matrix(-0.9648874181286338,0.262663797157239,-0.262663797157239,-0.9648874181286338,281,330.3888888888889)"/><g transform="matrix(0.2626637971572391,0.9648874181286337,-0.9648874181286337,0.2626637971572391,359.68668101421383,303.78667402046796)"><path fill="#000000" stroke="#000000" paint-order="fill stroke markers" d=" M 10 15 L 0 15 L 5 0 Z" stroke-miterlimit="10" stroke-dasharray=""/></g><g transform="matrix(1,0,0,1,283.6266379715724,309.8511258187137)"/></g><g transform="matrix(1,0,0,1,181,119)"/><g transform="matrix(1,0,0,1,181,219)"/><g transform="matrix(1,0,0,1,181,319)"/><g transform="matrix(1,0,0,1,361,119)"/><g transform="matrix(1,0,0,1,361,270)"/></g></g></svg>