<svg version="1.1" xmlns="http://www.w3.org/2000/svg" xmlns:xlink="http://www.w3.org/1999/xlink" width="783" height="535" viewBox="0 0 783 535"><defs/><g transform="matrix(1,0,0,1,0,0)"><g><g><g><path fill="none" stroke="#d3d3d3" paint-order="fill stroke markers" d=" M 0 0 L 1200 0" stroke-miterlimit="10" stroke-opacity="0.8" stroke-dasharray="5"/></g><g><path fill="none" stroke="#d3d3d3" paint-order="fill stroke markers" d=" M 0 0 L 0 800" stroke-miterlimit="10" stroke-opacity="0.8" stroke-dasharray="5"/></g></g><g id="_992EB3B1-934F-4D3C-B97B-1A58148118DF" transform="matrix(1,0,0,1,533,285)"><g><path fill="none" stroke="none"/></g><g transform="matrix(1,0,0,1,0,0)"><path fill="none" stroke="#000000" id="_992EB3B1-934F-4D3C-B97B-1A58148118DF?shapeType=BORDER&amp;renderType=STROKE" paint-order="fill stroke markers" d=" M 40 0 L 160 0 L 160 0 A 40 40 0 0 1 200 40 L 200 160 L 200 160 A 40 40 0 0 1 160 200 L 40 200 L 40 200 A 40 40 0 0 1 0 160 L 0 40 L 0 40.00000000000001 A 40 40 0 0 1 39.99999999999999 0 Z" stroke-miterlimit="10" stroke-width="3" stroke-dasharray=""/></g><g transform="matrix(1,0,0,1,0,100)"><path fill="none" stroke="black" id="_992EB3B1-934F-4D3C-B97B-1A58148118DFundefined" paint-order="fill stroke markers" d=" M 0 0 L 200 0" stroke-miterlimit="10" stroke-width="1.5" stroke-dasharray=""/></g><g transform="matrix(1,0,0,1,56.19915771484375,20)"><text fill="#000000" stroke="none" font-family="Open Sans" font-size="10pt" font-style="normal" font-weight="normal" text-decoration="normal" x="43.80084228515625" y="10.4" text-anchor="middle" dominant-baseline="alphabetic">fin.DTI Service</text></g></g><g id="_D3FB6355-F89A-4B78-AA25-8A01F69C2522" transform="matrix(1,0,0,1,181,119)"><g><path fill="none" stroke="none"/></g><g transform="matrix(0.9345794392523364,0,0,0.8771929824561403,0,0)"><g transform="matrix(1,0,0,1,0,0)"><path fill="none" stroke="#000000" id="_D3FB6355-F89A-4B78-AA25-8A01F69C2522?shapeType=BORDER&amp;renderType=STROKE" paint-order="fill stroke markers" d=" M 0 0 M 1.5 30 C 1.5 14.3 14.3 1.5 30 1.5 L 80 1.5 C 95.7 1.5 108.5 14.3 108.5 30 C 108.5 45.7 95.7 58.5 80 58.5 L 30 58.5 C 14.3 58.5 1.5 45.7 1.5 30 Z" stroke-miterlimit="10" stroke-width="1.5" stroke-dasharray=""/></g></g><g transform="matrix(1,0,0,1,12.909706115722656,18.5)"><text fill="#000000" stroke="none" font-family="Open Sans" font-size="10pt" font-style="normal" font-weight="normal" text-decoration="normal" x="37.090293884277344" y="10.4" text-anchor="middle" dominant-baseline="alphabetic">Credit score</text></g></g><g id="_B4C2DCD3-BD73-4DD1-86CE-7A519D138FA6" transform="matrix(1,0,0,1,181,219)"><g><path fill="none" stroke="none"/></g><g transform="matrix(0.9345794392523364,0,0,0.8771929824561403,0,0)"><g transform="matrix(1,0,0,1,0,0)"><path fill="none" stroke="#000000" id="_B4C2DCD3-BD73-4DD1-86CE-7A519D138FA6?shapeType=BORDER&amp;renderType=STROKE" paint-order="fill stroke markers" d=" M 0 0 M 1.5 30 C 1.5 14.3 14.3 1.5 30 1.5 L 80 1.5 C 95.7 1.5 108.5 14.3 108.5 30 C 108.5 45.7 95.7 58.5 80 58.5 L 30 58.5 C 14.3 58.5 1.5 45.7 1.5 30 Z" stroke-miterlimit="10" stroke-width="1.5" stroke-dasharray=""/></g></g><g transform="matrix(1,0,0,1,31.163589477539062,18.5)"><text fill="#000000" stroke="none" font-family="Open Sans" font-size="10pt" font-style="normal" font-weight="normal" text-decoration="normal" x="18.836410522460938" y="10.4" text-anchor="middle" dominant-baseline="alphabetic">Salary</text></g></g><g id="_FF6A4EE6-5D0C-4AE2-844A-2573F4DDEBC8" transform="matrix(1,0,0,1,181,319)"><g><path fill="none" stroke="none"/></g><g transform="matrix(0.9345794392523364,0,0,0.8771929824561403,0,0)"><g transform="matrix(1,0,0,1,0,0)"><path fill="none" stroke="#000000" id="_FF6A4EE6-5D0C-4AE2-844A-2573F4DDEBC8?shapeType=BORDER&amp;renderType=STROKE" paint-order="fill stroke markers" d=" M 0 0 M 1.5 30 C 1.5 14.3 14.3 1.5 30 1.5 L 80 1.5 C 95.7 1.5 108.5 14.3 108.5 30 C 108.5 45.7 95.7 58.5 80 58.5 L 30 58.5 C 14.3 58.5 1.5 45.7 1.5 30 Z" stroke-miterlimit="10" stroke-width="1.5" stroke-dasharray=""/></g></g><g transform="matrix(1,0,0,1,34.717384338378906,18.5)"><text fill="#000000" stroke="none" font-family="Open Sans" font-size="10pt" font-style="normal" font-weight="normal" text-decoration="normal" x="15.282615661621094" y="10.4" text-anchor="middle" dominant-baseline="alphabetic">Loan</text></g></g><g id="_B356A092-9D98-4135-BCEC-381FCAB34A21" transform="matrix(1,0,0,1,361,119)"><g><path fill="none" stroke="none"/></g><g transform="matrix(1,0,0,1,0,0)"><path fill="none" stroke="#000000" id="_B356A092-9D98-4135-BCEC-381FCAB34A21?shapeType=BORDER&amp;renderType=STROKE" paint-order="fill stroke markers" d=" M 0 0 L 100 0 L 100 50 L 0 50 L 0 0 Z Z" stroke-miterlimit="10" stroke-width="1.5" stroke-dasharray=""/></g><g transform="matrix(1,0,0,1,12.574508666992188,18.5)"><text fill="#000000" stroke="none" font-family="Open Sans" font-size="10pt" font-style="normal" font-weight="normal" text-decoration="normal" x="37.42549133300781" y="10.4" text-anchor="middle" dominant-baseline="alphabetic">Preapproval</text></g></g><g id="_F6960DAC-E88E-4961-A57A-C4289AEAA54A" transform="matrix(1,0,0,1,361,270)"><g><path fill="none" stroke="none"/></g><g transform="matrix(1,0,0,1,0,0)"><path fill="none" stroke="#000000" id="_F6960DAC-E88E-4961-A57A-C4289AEAA54A?shapeType=BORDER&amp;renderType=STROKE" paint-order="fill stroke markers" d=" M 0 0 L 100 0 L 100 50 L 0 50 L 0 0 Z Z" stroke-miterlimit="10" stroke-width="1.5" stroke-dasharray=""/></g><g transform="matrix(1,0,0,1,39.79423522949219,18.5)"><text fill="#000000" stroke="none" font-family="Open Sans" font-size="10pt" font-style="normal" font-weight="normal" text-decoration="normal" x="10.205764770507812" y="10.4" text-anchor="middle" dominant-baseline="alphabetic">DTI</text></g></g><g id="_E8F34173-5A17-4B9E-936F-72CFCF1210C4#_FAC12E09-0E51-46E5-99B1-D806037D3566"><g><path fill="none" stroke="#000000" paint-order="fill stroke markers" d=" M 533 344.4594594594595 L 461 315.2702702702703" stroke-miterlimit="10" stroke-dasharray="4,4"/></g><g transform="matrix(0.9267392682234051,0.3757051087392179,-0.3757051087392179,0.9267392682234051,533,344.4594594594595)"/><g transform="matrix(0.3757051087392179,-0.9267392682234051,0.9267392682234051,0.3757051087392179,459.12147445630393,319.9039666113873)"><path fill="#000000" stroke="#000000" paint-order="fill stroke markers" d=" M 0 10 L 5 0 L 10 10" stroke-miterlimit="10" stroke-dasharray=""/></g><g transform="matrix(1,0,0,1,464.7570510873922,320.59747218263084)"/></g><g id="_E8F34173-5A17-4B9E-936F-72CFCF1210C4#_76B78561-B6C3-4F5A-94B3-989FB21F146D"><g><path fill="none" stroke="#000000" paint-order="fill stroke markers" d=" M 411 270 L 411 169" stroke-miterlimit="10" stroke-dasharray=""/></g><g transform="matrix(6.123233995736766e-17,1,-1,6.123233995736766e-17,411,270)"/><g transform="matrix(1,0,0,1,406,169)"><path fill="#000000" stroke="#000000" paint-order="fill stroke markers" d=" M 10 15 L 0 15 L 5 0 Z" stroke-miterlimit="10" stroke-dasharray=""/></g><g transform="matrix(1,0,0,1,421,219.5)"/></g><g id="_E8F34173-5A17-4B9E-936F-72CFCF1210C4#_9BFEFD1E-9830-4630-8171-B6F1D3100308"><g><path fill="none" stroke="#000000" paint-order="fill stroke markers" d=" M 281 144 L 361 144" stroke-miterlimit="10" stroke-dasharray=""/></g><g transform="matrix(-1,1.2246467991473532e-16,-1.2246467991473532e-16,-1,281,144)"/><g transform="matrix(6.123233995736766e-17,1,-1,6.123233995736766e-17,361,139)"><path fill="#000000" stroke="#000000" paint-order="fill stroke markers" d=" M 10 15 L 0 15 L 5 0 Z" stroke-miterlimit="10" stroke-dasharray=""/></g><g transform="matrix(1,0,0,1,281,134)"/></g><g id="_E8F34173-5A17-4B9E-936F-72CFCF1210C4#_8A8189A5-B00E-46CC-A344-4E608B196EAC"><g><path fill="none" stroke="#000000" paint-order="fill stroke markers" d=" M 281 258.1666666666667 L 361 280.83333333333337" stroke-miterlimit="10" stroke-dasharray=""/></g><g transform="matrix(-0.9621267263153838,-0.2726025724560255,0.2726025724560255,-0.9621267263153838,281,258.1666666666667)"/><g transform="matrix(-0.2726025724560255,0.9621267263153838,-0.9621267263153838,-0.2726025724560255,362.36301286228013,276.02269970175644)"><path fill="#000000" stroke="#000000" paint-order="fill stroke markers" d=" M 10 15 L 0 15 L 5 0 Z" stroke-miterlimit="10" stroke-dasharray=""/></g><g transform="matrix(1,0,0,1,283.72602572456026,259.8787327368462)"/></g><g id="_E8F34173-5A17-4B9E-936F-72CFCF1210C4#_AE35CAF4-8A05-4C90-AF15-ED3BF2AF0340"><g><path fill="none" stroke="#000000" paint-order="fill stroke markers" d=" M 281 330.3888888888889 L 361 308.61111111111114" stroke-miterlimit="10" stroke-dasharray=""/></g><g transform="matrix(-0.9648874181286338,0.262663797157239,-0.262663797157239,-0.9648874181286338,281,330.3888888888889)"/><g transform="matrix(0.2626637971572391,0.9648874181286337,-0.9648874181286337,0.2626637971572391,359.68668101421383,303.78667402046796)"><path fill="#000000" stroke="#000000" paint-order="fill stroke markers" d=" M 10 15 L 0 15 L 5 0 Z" stroke-miterlimit="10" stroke-dasharray=""/></g><g transform="matrix(1,0,0,1,283.6266379715724,309.8511258187137)"/></g><g transform="matrix(1,0,0,1,533,285)"/><g transform="matrix(1,0,0,1,181,119)"/><g transform="matrix(1,0,0,1,181,219)"/><g transform="matrix(1,0,0,1,181,319)"/><g transform="matrix(1,0,0,1,361,119)"/><g transform="matrix(1,0,0,1,361,270)"/></g></g></svg>